<?xml version="1.0" standalone="no"?>
<!DOCTYPE svg PUBLIC "-//W3C//DTD SVG 20010904//EN"
 "http://www.w3.org/TR/2001/REC-SVG-20010904/DTD/svg10.dtd">
<svg version="1.0" xmlns="http://www.w3.org/2000/svg"
 width="470.000000pt" height="317.000000pt" viewBox="0 0 470.000000 317.000000"
 preserveAspectRatio="xMidYMid meet">

<g transform="translate(0.000000,317.000000) scale(0.100000,-0.100000)"
fill="#000000" stroke="none">
<path d="M3683 3106 c-67 -30 -92 -119 -53 -184 21 -34 72 -62 112 -62 31 0
83 33 104 65 21 33 22 97 0 130 -35 54 -106 76 -163 51z"/>
<path d="M2940 2795 l-545 -155 -1142 0 -1143 0 0 -882 c0 -836 1 -888 20
-978 49 -241 219 -446 425 -513 95 -31 296 -50 309 -29 2 4 -43 135 -100 292
-57 156 -104 288 -104 292 0 4 67 8 149 8 l148 0 54 -210 c30 -115 56 -210 59
-210 3 0 30 95 60 210 l55 210 141 0 142 0 47 -190 c26 -104 52 -196 59 -205
9 -13 18 9 44 112 18 70 42 163 54 205 l20 78 134 0 c79 0 134 -4 134 -10 0
-5 -40 -118 -90 -252 -49 -134 -86 -246 -82 -250 13 -12 125 -28 198 -28 162
0 304 59 419 174 l71 71 505 -142 c277 -78 512 -142 522 -143 9 0 17 6 16 13
0 6 -138 113 -306 237 -338 249 -389 293 -427 368 -34 66 -33 82 2 83 114 2
596 46 599 54 2 6 -128 61 -288 124 -159 63 -293 119 -296 124 -9 16 78 95
130 117 34 15 226 49 651 116 750 118 704 110 686 117 -8 3 -296 49 -640 103
-378 58 -647 105 -680 117 -61 23 -162 109 -145 125 6 5 139 60 297 123 158
63 286 119 285 124 -3 8 -480 51 -604 54 -14 1 -23 7 -23 16 0 30 52 117 94
158 23 23 182 146 353 272 172 127 312 236 313 243 0 6 -8 12 -17 11 -10 0
-263 -70 -563 -154z m-1822 -1293 l-3 -339 -25 -37 c-15 -22 -45 -47 -78 -63
-46 -23 -61 -25 -128 -21 -62 4 -82 10 -116 34 -78 55 -78 55 -78 431 l0 333
215 0 216 0 -3 -338z m942 35 c0 -343 -1 -346 -79 -402 -33 -23 -55 -30 -106
-33 -89 -6 -129 4 -172 41 -70 61 -73 76 -73 405 l0 292 215 0 215 0 0 -303z"/>
<path d="M3507 2299 c-9 -5 -24 -24 -33 -41 -41 -79 35 -166 120 -138 104 34
78 191 -31 190 -21 0 -46 -5 -56 -11z"/>
<path d="M4459 1705 c-111 -60 -68 -235 57 -235 59 0 97 21 118 64 21 45 20
84 -4 123 -35 58 -113 80 -171 48z"/>
<path d="M3479 1062 c-73 -66 -8 -192 87 -168 75 19 100 112 45 167 -40 39
-89 40 -132 1z"/>
<path d="M3673 320 c-113 -68 -64 -234 70 -232 68 1 120 52 120 120 0 104
-104 165 -190 112z"/>
</g>
</svg>
